# xmcd
# 
# Track frame offsets:
#     150
#     14169
#     35274
#     52867
#     67537
#     85458
#     106027
#     119353
#     133564
#     146417
#     161694
#     172896
#     183916
#     196035
#     209178
#     221664
#     230611
#     244622
#     258867
#     269363
# 
# Disc length: 3849
# 
# Revision: 0
# Processed by: cddbd v1.5.2PL0 Copyright (c) Steve Scherf et al.
# Submitted via: fre:ac v1.0.27
# 
DISCID=130f0714
DTITLE=JAREMA STĘPOWSKI - 40 PIOSENEK JAREMY STĘPOWSKIEGO
DYEAR=0
DGENRE=Folk
TTITLE0=NA MOIM PODWÓRKU
TTITLE1=GDZIE TA HARMOSZKA
TTITLE2=STĄD DO NIEPODLEGŁOŚCI
TTITLE3=KTO NA PRAGIE!
TTITLE4=ZIELONA WARSZAWA
TTITLE5=ZŁOTY KCIUK
TTITLE6=MILIONERZY
TTITLE7=O JEDNEJ WIŚNIEWSKIEJ
TTITLE8=HERBOWA ZWIERZYNA
TTITLE9=A JAK ZJEŚĆ TO I WYPIĆ
TTITLE10=PAN WALENTY
TTITLE11=DOLA JEDNEGO ARTYSTY FOTOGRAFIKA
TTITLE12=CHODŹMY FELEK NA KUFELEK
TTITLE13=FELUŚ, KANKANA
TTITLE14=CZTERY MILE ZA WARSZAWĄ
TTITLE15=ODRAŻAJĄCY DRAB
TTITLE16=PO KIELISZKU
TTITLE17=NA LUDZIACH TRZEBA SIĘ ZNAĆ
TTITLE18=MARIENSZTAT POLKĘ GRA
TTITLE19=BO MÓJ DZIADZIO MIAŁ KOLEJKĘ W LUNAPARKU
EXTD=
EXTT0=
EXTT1=
EXTT2=
EXTT3=
EXTT4=
EXTT5=
EXTT6=
EXTT7=
EXTT8=
EXTT9=
EXTT10=
EXTT11=
EXTT12=
EXTT13=
EXTT14=
EXTT15=
EXTT16=
EXTT17=
EXTT18=
EXTT19=
PLAYORDER=
